<svg width="259" height="98" viewBox="0 0 259 98" xmlns="http://www.w3.org/2000/svg" xmlns:xlink="http://www.w3.org/1999/xlink"><title>Page 1</title><defs><path id="a" d="M17.35 17.687V.209H.083v17.478h17.265z"/></defs><g fill="none" fill-rule="evenodd"><path d="M9.01 65.142l-5.52 8.153v-8.153H.768v12.433h2.599l5.484-8.152v8.152h2.724V65.142zm14.536 0h2.76v4.92h5.09v-4.92h2.759v12.433h-2.76v-4.99h-5.09v4.99h-2.76zm32.474 6.217c0-2.132-1.577-3.908-3.8-3.908-2.222 0-3.763 1.74-3.763 3.908 0 2.131 1.577 3.907 3.8 3.907 2.222 0 3.763-1.74 3.763-3.907zm-10.448 0c0-3.535 2.813-6.43 6.684-6.43s6.65 2.86 6.65 6.43c0 3.534-2.815 6.43-6.686 6.43-3.87 0-6.648-2.86-6.648-6.43zm24.75-6.217h10.466v12.433h-2.76v-9.964h-4.946v9.964h-2.76zm33.066 0v12.433h-2.76v-9.964h-3.62v.941c0 7.318-1.2 9.183-4.069 9.183-.448 0-1.11-.071-1.451-.16l.18-2.256c.125.018.25.036.43.036 1.487 0 2.33-.941 2.33-7.637v-2.576h8.96zm19.176 7.229l-1.666-4.032-1.668 4.032h3.334zm-2.903-7.317h2.544l5.377 12.521h-2.886l-1.146-2.788h-5.305l-1.147 2.788h-2.814l5.377-12.521zm18.819.088h2.759v4.92h5.09v-4.92h2.76v12.433h-2.76v-4.99h-5.09v4.99h-2.76zm21.757 12.434h12.1V75.14h-12.1v2.436zm0-10.002h12.011v-2.431h-12.011v2.43zm0 4.957h11.203v-2.435h-11.203v2.435zm24.713-4.867h-3.816v-2.522h10.394v2.522h-3.818v9.911h-2.76zm17.654-2.522h2.76v4.92h5.09v-4.92h2.76v12.433h-2.76v-4.99h-5.09v4.99h-2.76zm29.786 7.229l-1.667-4.032-1.667 4.032h3.334zm-2.904-7.317h2.545l5.377 12.521h-2.886l-1.147-2.788h-5.304l-1.147 2.788h-2.814l5.376-12.521zm25.987 6.127v-3.57h-2.742c-1.344 0-2.169.604-2.169 1.812 0 1.048.771 1.758 2.116 1.758h2.795zm2.76 6.394h-2.76v-3.978h-2.168l-2.688 3.978h-3.226l3.064-4.44c-1.595-.586-2.688-1.847-2.688-3.89 0-2.575 1.792-4.103 4.731-4.103h5.735v12.433zM32.238 84.878h2.974l3.298 5.257 3.297-5.257h2.975V97.31H42.04v-8.117l-3.53 5.31h-.072l-3.494-5.257v8.064h-2.706zm31.721 7.229l-1.667-4.032-1.667 4.032h3.334zm-2.903-7.318H63.6l5.377 12.522h-2.886l-1.146-2.789H59.64l-1.147 2.789h-2.814l5.377-12.522zm24.07 2.398c1.434 0 2.258.513 3.226 1.386l1.65-1.883c-1.168-1.137-2.494-2.025-4.86-2.025-3.851 0-6.54 2.893-6.54 6.43 0 3.604 2.74 6.43 6.433 6.43.04 0 .08 0 .12-.004v-2.518h-.029c-2.15 0-3.64-1.777-3.64-3.908 0-2.167 1.526-3.908 3.64-3.908m84.699 0c1.433 0 2.258.513 3.226 1.386l1.648-1.883c-1.167-1.137-2.493-2.025-4.859-2.025-3.85 0-6.54 2.893-6.54 6.43 0 3.604 2.74 6.43 6.433 6.43.04 0 .08 0 .12-.004v-2.518h-.028c-2.151 0-3.64-1.777-3.64-3.908 0-2.167 1.525-3.908 3.64-3.908m-65.559.213h-3.817v-2.522h10.394V87.4h-3.818v9.91h-2.76zm17.654-2.522h9.462v2.433h-6.721v2.522h5.914v2.434h-5.914v2.61h6.81v2.434h-9.552zm25.914 6.27c1.38 0 2.186-.817 2.186-1.919 0-1.225-.86-1.882-2.24-1.882h-2.132v3.8h2.186zm-4.946-6.27h5.125c2.993 0 4.803 1.758 4.803 4.333 0 2.878-2.258 4.37-5.072 4.37h-2.096v3.73h-2.76V84.878zm43.12 0h2.76v5.435l5.09-5.435h3.333l-5.108 5.275 5.34 7.158h-3.315l-3.889-5.293-1.451 1.492v3.8h-2.76zm29.248 7.229l-1.666-4.032-1.668 4.032h3.334zm-2.903-7.318h2.544l5.377 12.522h-2.886l-1.146-2.789h-5.305l-1.147 2.789h-2.814l5.377-12.522zm25.987 6.128v-3.57h-2.742c-1.344 0-2.17.604-2.17 1.811 0 1.048.772 1.759 2.116 1.759h2.796zm2.76 6.394h-2.76v-3.979h-2.17l-2.687 3.979h-3.226l3.064-4.44c-1.594-.586-2.688-1.848-2.688-3.89 0-2.575 1.793-4.103 4.732-4.103h5.734V97.31z" fill="#AE5438"/><g transform="translate(137.829 6.99)"><mask id="b" fill="#fff"><use xlink:href="#a"/></mask><path d="M16.62 5.822c1.863 4.147.03 9.031-4.052 11l-.005.002c-4.336 2.09-9.54.254-11.62-4.105C-1.139 8.363.69 3.134 5.026 1.044l.002-.001C9.109-.924 14.03.702 16.103 4.746a22.873 22.873 0 0 1 .517 1.076" fill="#000" mask="url(#b)"/></g><path d="M145.064 41.804l.004-.001.062-.037c3.322-1.965 4.564-6.18 2.897-9.672l-.47-.985c-2.084-4.364-7.295-6.203-11.638-4.109-3.367 1.623-5.225 5.135-4.917 8.663l.005.03c0 .002 0 .006.002.01.003.032.009.066.011.098l.001.03c.003.009.003.02.001.029l.001.01a2.281 2.281 0 0 1-1.283 2.17 2.22 2.22 0 0 1-1.448.172c-.047-.01-.093-.022-.14-.034l-.025-.007a8.208 8.208 0 0 1-.244-.086l-.014-.007a2.245 2.245 0 0 1-1.14-1.101 2.276 2.276 0 0 1 .428-2.575l.058-.059c.004-.001.006-.005.01-.009a8.785 8.785 0 0 0 1.51-9.787 8.703 8.703 0 0 0-8.61-4.935l-.08.007a2.279 2.279 0 0 1-2.21-1.295 2.27 2.27 0 0 1-.171-1.47 2.04 2.04 0 0 1 .19-.545 2.278 2.278 0 0 1 3.612-.636l.073.07c.001.004.005.006.006.008a8.673 8.673 0 0 0 9.725 1.512c4.334-2.09 6.162-7.313 4.083-11.666l-.615-1.287c-1.522-3.188-5.183-4.756-8.506-3.596l-.062.022c-.785.273-1.563.597-2.33.967-.767.37-1.504.776-2.207 1.22-8.962 5.613-12.865 16.792-9.351 26.802l.002.005a22.921 22.921 0 0 0 2.135 4.47c5.682 9.208 17.148 13.124 27.268 9.233l.003-.002a22.08 22.08 0 0 0 1.72-.743 22.207 22.207 0 0 0 1.654-.884" fill="#000"/></g></svg>