<svg width="45" height="45" viewBox="0 0 45 45" xmlns="http://www.w3.org/2000/svg" xmlns:xlink="http://www.w3.org/1999/xlink"><title>Page 1</title><defs><path id="a" d="M17.35 17.687V.209H.083v17.478h17.265z"/></defs><g fill="none" fill-rule="evenodd"><g transform="translate(26.829 6.99)"><mask id="b" fill="#fff"><use xlink:href="#a"/></mask><path d="M16.62 5.822c1.863 4.147.03 9.031-4.052 11l-.005.002c-4.336 2.09-9.54.254-11.62-4.105C-1.139 8.363.69 3.134 5.026 1.044l.002-.001C9.109-.924 14.03.702 16.103 4.746a22.873 22.873 0 0 1 .517 1.076" fill="#000" mask="url(#b)"/></g><path d="M34.064 41.804l.004-.001.062-.037c3.322-1.965 4.564-6.18 2.897-9.672l-.47-.985c-2.084-4.364-7.295-6.203-11.638-4.109-3.367 1.623-5.225 5.135-4.917 8.663l.005.03c0 .002 0 .006.002.01.003.032.009.066.011.098l.001.03c.003.009.003.02.001.029l.001.01a2.281 2.281 0 0 1-1.283 2.17 2.22 2.22 0 0 1-1.448.172c-.047-.01-.093-.022-.14-.034l-.025-.007a8.208 8.208 0 0 1-.244-.086l-.014-.007a2.245 2.245 0 0 1-1.14-1.101 2.276 2.276 0 0 1 .428-2.575l.058-.059c.004-.001.006-.005.01-.009a8.785 8.785 0 0 0 1.51-9.787 8.703 8.703 0 0 0-8.61-4.935l-.08.007a2.279 2.279 0 0 1-2.21-1.295 2.27 2.27 0 0 1-.171-1.47 2.04 2.04 0 0 1 .19-.545 2.278 2.278 0 0 1 3.612-.636l.073.07c.001.004.005.006.006.008a8.673 8.673 0 0 0 9.725 1.512c4.334-2.09 6.162-7.313 4.083-11.666l-.615-1.287C22.216 1.122 18.555-.446 15.232.714l-.062.022c-.785.273-1.563.597-2.33.967-.767.37-1.504.776-2.207 1.22C1.67 8.537-2.232 19.716 1.282 29.726l.002.005a22.921 22.921 0 0 0 2.135 4.47c5.682 9.208 17.148 13.124 27.268 9.233l.003-.002a22.08 22.08 0 0 0 1.72-.743 22.207 22.207 0 0 0 1.654-.884" fill="#000"/></g></svg>