<svg width="23" height="23" viewBox="0 0 23 23" xmlns="http://www.w3.org/2000/svg"><title>Page 1</title><g fill="#5E5E5E" fill-rule="evenodd"><path d="M11.611 4.852a6.82 6.82 0 1 0 0 13.64 6.82 6.82 0 0 0 0-13.64m0 1.527a5.298 5.298 0 0 1 5.292 5.292 5.298 5.298 0 0 1-5.292 5.293A5.298 5.298 0 0 1 6.32 11.67a5.298 5.298 0 0 1 5.292-5.292"/><path d="M13.602 11.671a1.991 1.991 0 1 1-3.982 0 1.991 1.991 0 0 1 3.982 0m7.234-6.052l-1.11 1.109a9.523 9.523 0 0 1 .022 9.85l1.111 1.11a11.05 11.05 0 0 0-.023-12.07zM5.593 2.422l1.11 1.11a9.527 9.527 0 0 1 9.823.006l1.11-1.109a11.05 11.05 0 0 0-12.043-.007zM3.499 6.719L2.39 5.609a11.041 11.041 0 0 0-.021 12.086l1.109-1.108a9.528 9.528 0 0 1 .021-9.868zm13.063 13.063a9.524 9.524 0 0 1-9.895.005L5.56 20.896a11.042 11.042 0 0 0 12.112-.006l-1.109-1.108z"/></g></svg>