<?xml version="1.0" encoding="UTF-8"?>
<svg width="259px" height="98px" viewBox="0 0 259 98" version="1.1" xmlns="http://www.w3.org/2000/svg" xmlns:xlink="http://www.w3.org/1999/xlink">
    <!-- Generator: Sketch 41.1 (35376) - http://www.bohemiancoding.com/sketch -->
    <title>Page 1</title>
    <desc>Created with Sketch.</desc>
    <defs>
        <polygon id="path-1" points="17.3493355 17.6870353 17.3493355 0.209239335 0.0835575362 0.209239335 0.0835575362 17.6870353 17.3493355 17.6870353"></polygon>
    </defs>
    <g id="Page-1" stroke="none" stroke-width="1" fill="none" fill-rule="evenodd">
        <g id="Home" transform="translate(-521.000000, -25.000000)">
            <g id="Page-1" transform="translate(521.000000, 25.000000)">
                <g transform="translate(0.000000, 64.000000)" id="Group-31" fill="#AE5438">
                    <g transform="translate(0.162207, 0.402834)">
                        <polygon id="Fill-1" points="8.84860105 0.739397967 3.32869579 8.89184224 3.32869579 0.739397967 0.604802159 0.739397967 0.604802159 13.172253 3.20342038 13.172253 8.68743593 5.01980872 8.68743593 13.172253 11.4113296 13.172253 11.4113296 0.739397967"></polygon>
                        <polygon id="Fill-2" points="23.3835277 0.739297299 26.143311 0.739297299 26.143311 5.65928651 31.2328783 5.65928651 31.2328783 0.739297299 33.9926617 0.739297299 33.9926617 13.1724879 31.2328783 13.1724879 31.2328783 8.18135983 26.143311 8.18135983 26.143311 13.1724879 23.3835277 13.1724879"></polygon>
                        <path d="M55.8578248,6.95602681 C55.8578248,4.82454601 54.280709,3.04808831 52.0582555,3.04808831 C49.8361407,3.04808831 48.2949146,4.78897659 48.2949146,6.95602681 C48.2949146,9.08717205 49.8720304,10.8632942 52.0941453,10.8632942 C54.3165987,10.8632942 55.8578248,9.12274147 55.8578248,6.95602681 L55.8578248,6.95602681 Z M45.4095173,6.95602681 C45.4095173,3.42123167 48.2231352,0.526014995 52.0941453,0.526014995 C55.9651553,0.526014995 58.7428835,3.38599781 58.7428835,6.95602681 C58.7428835,10.4904864 55.9292656,13.3853675 52.0582555,13.3853675 C48.1872455,13.3853675 45.4095173,10.5257203 45.4095173,6.95602681 L45.4095173,6.95602681 Z" id="Fill-3"></path>
                        <polygon id="Fill-5" points="70.1600439 0.739297299 80.6259576 0.739297299 80.6259576 13.1724879 77.8658357 13.1724879 77.8658357 3.20801648 72.9198272 3.20801648 72.9198272 13.1724879 70.1600439 13.1724879"></polygon>
                        <path d="M103.225539,0.739297299 L103.225539,13.1724879 L100.465756,13.1724879 L100.465756,3.20801648 L96.8456353,3.20801648 L96.8456353,4.14959947 C96.8456353,11.467169 95.6450229,13.3322147 92.7772318,13.3322147 C92.3292876,13.3322147 91.6663437,13.2610759 91.32573,13.1724879 L91.5051786,10.9165141 C91.630454,10.9342988 91.756068,10.9520835 91.9351779,10.9520835 C93.4225695,10.9520835 94.2649619,10.0108361 94.2649619,3.31506031 L94.2649619,0.739297299 L103.225539,0.739297299 Z" id="Fill-7"></path>
                        <path d="M122.401852,7.9682453 L120.735351,3.93614938 L119.068172,7.9682453 L122.401852,7.9682453 Z M119.49851,0.65067575 L122.043293,0.65067575 L127.419978,13.1724543 L124.534243,13.1724543 L123.387465,10.3839459 L118.082898,10.3839459 L116.935781,13.1724543 L114.122163,13.1724543 L119.49851,0.65067575 Z" id="Fill-9"></path>
                        <polygon id="Fill-11" points="138.316975 0.739297299 141.076758 0.739297299 141.076758 5.65928651 146.166326 5.65928651 146.166326 0.739297299 148.926448 0.739297299 148.926448 13.1724879 146.166326 13.1724879 146.166326 8.18135983 141.076758 8.18135983 141.076758 13.1724879 138.316975 13.1724879"></polygon>
                        <path d="M160.07474,13.1730919 L172.173974,13.1730919 L172.173974,10.7375932 L160.07474,10.7375932 L160.07474,13.1730919 Z M160.07474,3.1710377 L172.086281,3.1710377 L172.086281,0.739901308 L160.07474,0.739901308 L160.07474,3.1710377 Z M160.07474,8.1286097 L171.278086,8.1286097 L171.278086,5.69311102 L160.07474,5.69311102 L160.07474,8.1286097 Z" id="Fill-13"></path>
                        <polygon id="Fill-15" points="184.788192 3.26137061 180.971355 3.26137061 180.971355 0.739297299 191.365489 0.739297299 191.365489 3.26137061 187.547975 3.26137061 187.547975 13.1724879 184.788192 13.1724879"></polygon>
                        <polygon id="Fill-16" points="202.441833 0.739297299 205.201616 0.739297299 205.201616 5.65928651 210.291183 5.65928651 210.291183 0.739297299 213.051305 0.739297299 213.051305 13.1724879 210.291183 13.1724879 210.291183 8.18135983 205.201616 8.18135983 205.201616 13.1724879 202.441833 13.1724879"></polygon>
                        <path d="M232.227449,7.9682453 L230.560947,3.93614938 L228.893768,7.9682453 L232.227449,7.9682453 Z M229.324106,0.65067575 L231.86889,0.65067575 L237.245575,13.1724543 L234.359839,13.1724543 L233.213061,10.3839459 L227.908494,10.3839459 L226.761378,13.1724543 L223.94776,13.1724543 L229.324106,0.65067575 Z" id="Fill-17"></path>
                        <path d="M255.311,6.77831393 L255.311,3.20828493 L252.569161,3.20828493 C251.22499,3.20828493 250.400204,3.81229397 250.400204,5.0199765 C250.400204,6.06793219 251.171155,6.77831393 252.515327,6.77831393 L255.311,6.77831393 Z M258.070783,13.1724208 L255.311,13.1724208 L255.311,9.19367898 L253.142381,9.19367898 L250.454377,13.1724208 L247.228704,13.1724208 L250.292873,8.73194762 C248.698151,8.14605885 247.604869,6.88468663 247.604869,4.84212939 C247.604869,2.26670194 249.396985,0.739230187 252.336217,0.739230187 L258.070783,0.739230187 L258.070783,13.1724208 Z" id="Fill-18"></path>
                        <polygon id="Fill-19" points="32.0753724 20.4749236 35.0501554 20.4749236 38.3476072 25.7321512 41.6450591 20.4749236 44.6198421 20.4749236 44.6198421 32.9081142 41.8780036 32.9081142 41.8780036 24.7909038 38.3476072 30.1018211 38.2761664 30.1018211 34.7813211 24.8445935 34.7813211 32.9081142 32.0753724 32.9081142"></polygon>
                        <path d="M63.7967304,27.7038717 L62.1302289,23.6717757 L60.4630503,27.7038717 L63.7967304,27.7038717 Z M60.8933882,20.3863021 L63.4381719,20.3863021 L68.8148569,32.9080807 L65.929121,32.9080807 L64.7823431,30.1195723 L59.4777761,30.1195723 L58.3306597,32.9080807 L55.5170418,32.9080807 L60.8933882,20.3863021 Z" id="Fill-20"></path>
                        <path d="M84.9642788,22.7841509 C86.3981743,22.7841509 87.2222833,23.297223 88.1902898,24.1696805 L89.839185,22.2868501 C88.6720922,21.1503064 87.3458658,20.2620776 84.9801921,20.2620776 C81.1288198,20.2620776 78.4404773,23.1552809 78.4404773,26.6920894 C78.4404773,30.2956745 81.1806229,33.1217657 84.872523,33.1217657 C84.9124757,33.1217657 84.9524284,33.1217657 84.9920425,33.1177389 L84.9920425,30.5996923 L84.9642788,30.5996923 C82.8136048,30.5996923 81.3241818,28.8232346 81.3241818,26.6920894 C81.3241818,24.5250392 82.8494945,22.7841509 84.9642788,22.7841509" id="Fill-21"></path>
                        <path d="M169.662371,22.7841509 C171.096267,22.7841509 171.920376,23.297223 172.888382,24.1696805 L174.537278,22.2868501 C173.370185,21.1503064 172.043958,20.2620776 169.678285,20.2620776 C165.826912,20.2620776 163.13857,23.1552809 163.13857,26.6920894 C163.13857,30.2956745 165.878716,33.1217657 169.570616,33.1217657 C169.610568,33.1217657 169.650521,33.1217657 169.690135,33.1177389 L169.690135,30.5996923 L169.662371,30.5996923 C167.511697,30.5996923 166.022274,28.8232346 166.022274,26.6920894 C166.022274,24.5250392 167.547587,22.7841509 169.662371,22.7841509" id="Fill-22"></path>
                        <polygon id="Fill-23" points="104.103347 22.996997 100.286511 22.996997 100.286511 20.4749236 110.680645 20.4749236 110.680645 22.996997 106.863131 22.996997 106.863131 32.9081142 104.103347 32.9081142"></polygon>
                        <polygon id="Fill-24" points="121.756988 20.4749236 131.219345 20.4749236 131.219345 22.908409 124.498827 22.908409 124.498827 25.4304823 130.412842 25.4304823 130.412842 27.8639676 124.498827 27.8639676 124.498827 30.4746289 131.30873 30.4746289 131.30873 32.9081142 121.756988 32.9081142"></polygon>
                        <path d="M147.671594,26.7448395 C149.051655,26.7448395 149.858158,25.9277495 149.858158,24.8264397 C149.858158,23.6009724 148.997821,22.9439448 147.61776,22.9439448 L145.485369,22.9439448 L145.485369,26.7448395 L147.671594,26.7448395 Z M142.725586,20.4748901 L147.851043,20.4748901 C150.843771,20.4748901 152.653831,22.2332275 152.653831,24.808655 C152.653831,27.6860869 150.395827,29.1783248 147.582209,29.1783248 L145.485369,29.1783248 L145.485369,32.9080807 L142.725586,32.9080807 L142.725586,20.4748901 Z" id="Fill-25"></path>
                        <polygon id="Fill-26" points="185.845719 20.4749236 188.605503 20.4749236 188.605503 25.9099984 193.69507 20.4749236 197.028411 20.4749236 191.920899 25.7502715 197.261356 32.9081142 193.945959 32.9081142 190.057004 27.6153172 188.605503 29.106884 188.605503 32.9081142 185.845719 32.9081142"></polygon>
                        <path d="M215.093836,27.7038717 L213.427335,23.6717757 L211.760156,27.7038717 L215.093836,27.7038717 Z M212.190494,20.3863021 L214.735277,20.3863021 L220.111962,32.9080807 L217.226227,32.9080807 L216.079449,30.1195723 L210.774882,30.1195723 L209.627765,32.9080807 L206.814147,32.9080807 L212.190494,20.3863021 Z" id="Fill-27"></path>
                        <path d="M238.177353,26.5139738 L238.177353,22.9439448 L235.435515,22.9439448 C234.091343,22.9439448 233.266557,23.5479539 233.266557,24.7556364 C233.266557,25.8035921 234.037509,26.5139738 235.38168,26.5139738 L238.177353,26.5139738 Z M240.937137,32.9080807 L238.177353,32.9080807 L238.177353,28.9293389 L236.008734,28.9293389 L233.32073,32.9080807 L230.095058,32.9080807 L233.159227,28.4676075 C231.564505,27.8817188 230.470884,26.6203465 230.470884,24.5777893 C230.470884,22.0026974 232.263338,20.4748901 235.20257,20.4748901 L240.937137,20.4748901 L240.937137,32.9080807 Z" id="Fill-28"></path>
                    </g>
                </g>
                <g transform="translate(111.000000, 0.000000)">
                    <g id="Group-3" transform="translate(26.828869, 6.989487)">
                        <mask id="mask-2" fill="white">
                            <use xlink:href="#path-1"></use>
                        </mask>
                        <g id="Clip-2"></g>
                        <path d="M16.6199877,5.82215427 C18.4834349,9.96852225 16.6497976,14.8533757 12.5675036,16.821561 L12.5625353,16.8238906 C8.22652627,18.9142138 3.02338172,17.0778178 0.942322633,12.7194555 C-1.13807401,8.3627573 0.691257412,3.13412038 5.02726641,1.04379714 C5.02759763,1.04379714 5.02792885,1.04346434 5.02892251,1.04279873 C9.10956042,-0.924388129 14.0311675,0.702010484 16.1026211,4.74554295 C16.2016561,4.93890034 16.2983725,5.13392174 16.3924392,5.33127275 C16.4706072,5.49434526 16.5461255,5.65808336 16.6199877,5.82215427" id="Fill-1" fill="#000000" mask="url(#mask-2)"></path>
                    </g>
                    <g id="Group-6" transform="translate(0.000000, 0.000666)" fill="#000000">
                        <path d="M34.0641517,41.8036693 C34.0658078,41.8030037 34.0658078,41.8030037 34.0677951,41.8020053 C34.088662,41.7896917 34.1091977,41.7773781 34.1300646,41.7650644 C37.4515449,39.80054 38.6939534,35.5849494 37.0269201,32.093201 C36.7433952,31.4991512 36.5665234,31.1287436 36.556918,31.1084428 C34.4732092,26.7447557 29.2624465,24.9056972 24.9194819,26.9993485 C21.5522932,28.6224191 19.6944768,32.1344683 20.0015183,35.662492 C20.0038368,35.6721432 20.0064866,35.6817945 20.007149,35.6921113 C20.0078115,35.6941081 20.0078115,35.6984345 20.0094676,35.7017625 C20.0124486,35.7347098 20.0177481,35.7686555 20.0200667,35.7999388 C20.0197354,35.8085917 20.0203979,35.8189085 20.0210603,35.8295581 C20.0237101,35.8388765 20.0243725,35.8495262 20.0223852,35.8588446 C20.0223852,35.863171 20.0233789,35.8651678 20.0230476,35.8691614 C20.070081,36.7560762 19.5874925,37.6316757 18.7402302,38.0400225 C18.2708906,38.2663272 17.7634606,38.315249 17.2924649,38.2114151 C17.2451004,38.2017638 17.1987295,38.189783 17.1523586,38.1778022 C17.1427532,38.1758054 17.1351351,38.1731429 17.1271859,38.1704805 C17.0457056,38.1431909 16.9635629,38.1139044 16.882745,38.0839523 C16.8777767,38.0822883 16.8741333,38.0796259 16.869165,38.077629 C16.8287561,38.0606562 16.7903345,38.0426849 16.7525753,38.0220513 C16.31967,37.8053978 15.9543337,37.4479695 15.7291037,36.9763905 C15.3236896,36.1270822 15.4912873,35.1476488 16.0801975,34.4853748 C16.0864907,34.4757235 16.0941088,34.4657395 16.1030517,34.4570867 C16.1222625,34.4391154 16.1408109,34.4194802 16.1573719,34.4008433 C16.1759203,34.3812081 16.1951311,34.3632368 16.2153355,34.3426031 C16.2186477,34.3409391 16.2212975,34.3376111 16.2259346,34.3332847 C18.6226469,31.7760416 19.3387459,27.9032361 17.7356381,24.5462721 C16.1225937,21.1680089 12.6325222,19.3033248 9.12555837,19.6118313 C9.0987295,19.6141609 9.07190063,19.6161577 9.04507176,19.6181546 C8.14150194,19.6797227 7.2505185,19.1935004 6.83483664,18.3232258 C6.60795052,17.8479859 6.55859865,17.3321443 6.6639268,16.8535764 C6.70135473,16.663547 6.76561153,16.4798409 6.85470988,16.3081155 C7.07066571,15.8684854 7.43037129,15.4974122 7.90335432,15.2694435 C8.76254058,14.8551063 9.75719607,15.0291612 10.4219558,15.6331951 C10.4305676,15.6375215 10.4385169,15.6445103 10.4441476,15.6524975 C10.4517657,15.6594863 10.459715,15.6664752 10.4663394,15.6718 C10.4901873,15.6947633 10.5146976,15.7193905 10.5385455,15.7423538 C10.5402016,15.7460146 10.5435138,15.748677 10.5445075,15.750341 C13.0862944,18.1518332 16.9357403,18.8693522 20.269807,17.2619233 C24.6038287,15.1725984 26.431504,9.94895355 24.3530947,5.59591613 C24.3444829,5.57827767 24.1050104,5.07641373 23.7383492,4.30930736 C22.2160593,1.12173914 18.5554091,-0.447084898 15.2319415,0.71372508 C15.2114058,0.721046703 15.1908702,0.728035524 15.1703345,0.735357147 C14.3850104,1.00858679 13.606642,1.33240219 12.8395351,1.70214413 C12.0727594,2.07188607 11.3361247,2.47856892 10.6326121,2.92285829 C1.67110734,8.53521479 -2.2316651,19.7146668 1.2815919,29.7243233 L1.28391045,29.7296481 C1.55451769,30.5020793 1.86983971,31.2701841 2.23120139,32.0269736 C2.59090697,32.7801023 2.98572194,33.5036118 3.41697117,34.1965035 C3.41763361,34.1981675 3.41763361,34.1981675 3.41862727,34.1998315 C9.10104805,43.4071047 20.5672431,47.3235071 30.6866952,43.4320648 C30.6883513,43.4310664 30.6883513,43.4310664 30.6900074,43.4304007 C31.2673249,43.2100865 31.8436487,42.9601529 32.4103672,42.6869233 C32.9774169,42.4136936 33.5318802,42.1181663 34.0641517,41.8036693" id="Fill-4"></path>
                    </g>
                </g>
            </g>
        </g>
    </g>
</svg>