<?xml version="1.0" encoding="UTF-8"?>
<svg width="45px" height="45px" viewBox="0 0 45 45" version="1.1" xmlns="http://www.w3.org/2000/svg" xmlns:xlink="http://www.w3.org/1999/xlink">
    <!-- Generator: Sketch 41.1 (35376) - http://www.bohemiancoding.com/sketch -->
    <title>Page 1</title>
    <desc>Created with Sketch.</desc>
    <defs>
        <polygon id="path-1" points="17.3493355 17.6870353 17.3493355 0.209239335 0.0835575362 0.209239335 0.0835575362 17.6870353 17.3493355 17.6870353"></polygon>
    </defs>
    <g id="Page-1" stroke="none" stroke-width="1" fill="none" fill-rule="evenodd">
        <g id="Home" transform="translate(-632.000000, -25.000000)">
            <g id="Page-1" transform="translate(632.000000, 25.000000)">
                <g id="Group-3" transform="translate(26.828869, 6.989487)">
                    <mask id="mask-2" fill="white">
                        <use xlink:href="#path-1"></use>
                    </mask>
                    <g id="Clip-2"></g>
                    <path d="M16.6199877,5.82215427 C18.4834349,9.96852225 16.6497976,14.8533757 12.5675036,16.821561 L12.5625353,16.8238906 C8.22652627,18.9142138 3.02338172,17.0778178 0.942322633,12.7194555 C-1.13807401,8.3627573 0.691257412,3.13412038 5.02726641,1.04379714 C5.02759763,1.04379714 5.02792885,1.04346434 5.02892251,1.04279873 C9.10956042,-0.924388129 14.0311675,0.702010484 16.1026211,4.74554295 C16.2016561,4.93890034 16.2983725,5.13392174 16.3924392,5.33127275 C16.4706072,5.49434526 16.5461255,5.65808336 16.6199877,5.82215427" id="Fill-1" fill="#000000" mask="url(#mask-2)"></path>
                </g>
                <g id="Group-6" transform="translate(0.000000, 0.000666)" fill="#000000">
                    <path d="M34.0641517,41.8036693 C34.0658078,41.8030037 34.0658078,41.8030037 34.0677951,41.8020053 C34.088662,41.7896917 34.1091977,41.7773781 34.1300646,41.7650644 C37.4515449,39.80054 38.6939534,35.5849494 37.0269201,32.093201 C36.7433952,31.4991512 36.5665234,31.1287436 36.556918,31.1084428 C34.4732092,26.7447557 29.2624465,24.9056972 24.9194819,26.9993485 C21.5522932,28.6224191 19.6944768,32.1344683 20.0015183,35.662492 C20.0038368,35.6721432 20.0064866,35.6817945 20.007149,35.6921113 C20.0078115,35.6941081 20.0078115,35.6984345 20.0094676,35.7017625 C20.0124486,35.7347098 20.0177481,35.7686555 20.0200667,35.7999388 C20.0197354,35.8085917 20.0203979,35.8189085 20.0210603,35.8295581 C20.0237101,35.8388765 20.0243725,35.8495262 20.0223852,35.8588446 C20.0223852,35.863171 20.0233789,35.8651678 20.0230476,35.8691614 C20.070081,36.7560762 19.5874925,37.6316757 18.7402302,38.0400225 C18.2708906,38.2663272 17.7634606,38.315249 17.2924649,38.2114151 C17.2451004,38.2017638 17.1987295,38.189783 17.1523586,38.1778022 C17.1427532,38.1758054 17.1351351,38.1731429 17.1271859,38.1704805 C17.0457056,38.1431909 16.9635629,38.1139044 16.882745,38.0839523 C16.8777767,38.0822883 16.8741333,38.0796259 16.869165,38.077629 C16.8287561,38.0606562 16.7903345,38.0426849 16.7525753,38.0220513 C16.31967,37.8053978 15.9543337,37.4479695 15.7291037,36.9763905 C15.3236896,36.1270822 15.4912873,35.1476488 16.0801975,34.4853748 C16.0864907,34.4757235 16.0941088,34.4657395 16.1030517,34.4570867 C16.1222625,34.4391154 16.1408109,34.4194802 16.1573719,34.4008433 C16.1759203,34.3812081 16.1951311,34.3632368 16.2153355,34.3426031 C16.2186477,34.3409391 16.2212975,34.3376111 16.2259346,34.3332847 C18.6226469,31.7760416 19.3387459,27.9032361 17.7356381,24.5462721 C16.1225937,21.1680089 12.6325222,19.3033248 9.12555837,19.6118313 C9.0987295,19.6141609 9.07190063,19.6161577 9.04507176,19.6181546 C8.14150194,19.6797227 7.2505185,19.1935004 6.83483664,18.3232258 C6.60795052,17.8479859 6.55859865,17.3321443 6.6639268,16.8535764 C6.70135473,16.663547 6.76561153,16.4798409 6.85470988,16.3081155 C7.07066571,15.8684854 7.43037129,15.4974122 7.90335432,15.2694435 C8.76254058,14.8551063 9.75719607,15.0291612 10.4219558,15.6331951 C10.4305676,15.6375215 10.4385169,15.6445103 10.4441476,15.6524975 C10.4517657,15.6594863 10.459715,15.6664752 10.4663394,15.6718 C10.4901873,15.6947633 10.5146976,15.7193905 10.5385455,15.7423538 C10.5402016,15.7460146 10.5435138,15.748677 10.5445075,15.750341 C13.0862944,18.1518332 16.9357403,18.8693522 20.269807,17.2619233 C24.6038287,15.1725984 26.431504,9.94895355 24.3530947,5.59591613 C24.3444829,5.57827767 24.1050104,5.07641373 23.7383492,4.30930736 C22.2160593,1.12173914 18.5554091,-0.447084898 15.2319415,0.71372508 C15.2114058,0.721046703 15.1908702,0.728035524 15.1703345,0.735357147 C14.3850104,1.00858679 13.606642,1.33240219 12.8395351,1.70214413 C12.0727594,2.07188607 11.3361247,2.47856892 10.6326121,2.92285829 C1.67110734,8.53521479 -2.2316651,19.7146668 1.2815919,29.7243233 L1.28391045,29.7296481 C1.55451769,30.5020793 1.86983971,31.2701841 2.23120139,32.0269736 C2.59090697,32.7801023 2.98572194,33.5036118 3.41697117,34.1965035 C3.41763361,34.1981675 3.41763361,34.1981675 3.41862727,34.1998315 C9.10104805,43.4071047 20.5672431,47.3235071 30.6866952,43.4320648 C30.6883513,43.4310664 30.6883513,43.4310664 30.6900074,43.4304007 C31.2673249,43.2100865 31.8436487,42.9601529 32.4103672,42.6869233 C32.9774169,42.4136936 33.5318802,42.1181663 34.0641517,41.8036693" id="Fill-4"></path>
                </g>
            </g>
        </g>
    </g>
</svg>