<?xml version="1.0" encoding="UTF-8"?>
<svg width="25px" height="23px" viewBox="0 0 25 23" version="1.1" xmlns="http://www.w3.org/2000/svg" xmlns:xlink="http://www.w3.org/1999/xlink">
    <!-- Generator: Sketch 43.1 (39012) - http://www.bohemiancoding.com/sketch -->
    <title>Page 1</title>
    <desc>Created with Sketch.</desc>
    <defs></defs>
    <g id="Page-1" stroke="none" stroke-width="1" fill="none" fill-rule="evenodd">
        <g id="Home" transform="translate(-888.000000, -511.000000)" fill="#5E5E5E">
            <g id="Group-8" transform="translate(358.000000, 225.000000)">
                <g id="Page-1" transform="translate(529.000000, 284.000000)">
                    <g transform="translate(0.092308, 0.758974)">
                        <path d="M14.4280106,2.00007019 L5.93168957,8.06047404 L1.0000472,8.06047404 L1.0000472,18.3223554 L5.93168957,18.3223554 L14.4280106,24.2861279 L14.4280106,2.00007019 Z M2.41610071,9.46408622 L5.93168957,9.46408622 L6.38813081,9.46408622 L6.75890082,9.19992917 L13.0119571,4.73944199 L13.0119571,21.5720253 L6.74993249,17.176583 L6.38223059,16.9185093 L5.93168957,16.9185093 L2.41610071,16.9185093 L2.41610071,9.46408622 Z" id="Fill-1"></path>
                        <polygon id="Fill-2" points="17.4566659 16.974359 18.8727194 16.974359 18.8727194 9.4286859 17.4566659 9.4286859"></polygon>
                        <polygon id="Fill-3" points="21.0952154 21.6538462 22.5112689 21.6538462 22.5112689 4.74919872 21.0952154 4.74919872"></polygon>
                        <rect id="Rectangle-7" transform="translate(14.627271, 12.306057) rotate(-315.000000) translate(-14.627271, -12.306057) " x="13.6272711" y="-2.19394346" width="2" height="29"></rect>
                    </g>
                </g>
            </g>
        </g>
    </g>
</svg>