<?xml version="1.0" encoding="UTF-8"?>
<svg width="22px" height="23px" viewBox="0 0 22 23" version="1.1" xmlns="http://www.w3.org/2000/svg" xmlns:xlink="http://www.w3.org/1999/xlink">
    <!-- Generator: Sketch 43.1 (39012) - http://www.bohemiancoding.com/sketch -->
    <title>Page 1</title>
    <desc>Created with Sketch.</desc>
    <defs></defs>
    <g id="Page-1" stroke="none" stroke-width="1" fill="none" fill-rule="evenodd">
        <g id="Home" transform="translate(-888.000000, -511.000000)" fill="#5E5E5E">
            <g id="Group-8" transform="translate(358.000000, 225.000000)">
                <g id="Page-1" transform="translate(530.000000, 286.000000)">
                    <g transform="translate(0.092308, 0.758974)">
                        <path d="M13.4280106,7.01923076e-05 L4.93168957,6.06047404 L4.72017837e-05,6.06047404 L4.72017837e-05,16.3223554 L4.93168957,16.3223554 L13.4280106,22.2861279 L13.4280106,7.01923076e-05 Z M1.41610071,7.46408622 L4.93168957,7.46408622 L5.38813081,7.46408622 L5.75890082,7.19992917 L12.0119571,2.73944199 L12.0119571,19.5720253 L5.74993249,15.176583 L5.38223059,14.9185093 L4.93168957,14.9185093 L1.41610071,14.9185093 L1.41610071,7.46408622 Z" id="Fill-1"></path>
                        <polygon id="Fill-2" points="16.4566659 14.974359 17.8727194 14.974359 17.8727194 7.4286859 16.4566659 7.4286859"></polygon>
                        <polygon id="Fill-3" points="20.0952154 19.6538462 21.5112689 19.6538462 21.5112689 2.74919872 20.0952154 2.74919872"></polygon>
                    </g>
                </g>
            </g>
        </g>
    </g>
</svg>