<?xml version="1.0" encoding="UTF-8"?>
<svg width="23px" height="23px" viewBox="0 0 23 23" version="1.1" xmlns="http://www.w3.org/2000/svg" xmlns:xlink="http://www.w3.org/1999/xlink">
    <!-- Generator: Sketch 43.1 (39012) - http://www.bohemiancoding.com/sketch -->
    <title>Page 1</title>
    <desc>Created with Sketch.</desc>
    <defs></defs>
    <g id="Page-1" stroke="none" stroke-width="1" fill="none" fill-rule="evenodd">
        <g id="Home" transform="translate(-389.000000, -512.000000)" fill="#5E5E5E">
            <g id="Group-8" transform="translate(358.000000, 225.000000)">
                <g id="Page-1" transform="translate(31.000000, 287.000000)">
                    <g transform="translate(0.446154, 0.507692)">
                        <path d="M11.1649822,4.34414992 C7.39867659,4.34414992 4.34541069,7.39741581 4.34541069,11.1637214 C4.34541069,14.930027 7.39867659,17.9832929 11.1649822,17.9832929 C14.9312877,17.9832929 17.9845536,14.930027 17.9845536,11.1637214 C17.9845536,7.39741581 14.9312877,4.34414992 11.1649822,4.34414992 M11.1649822,5.87154656 C14.0830735,5.87154656 16.457157,8.24563009 16.457157,11.1637214 C16.457157,14.0818127 14.0830735,16.4558962 11.1649822,16.4558962 C8.24689086,16.4558962 5.87280734,14.0818127 5.87280734,11.1637214 C5.87280734,8.24563009 8.24689086,5.87154656 11.1649822,5.87154656" id="Fill-1"></path>
                        <path d="M13.1563255,11.1637468 C13.1563255,12.2634724 12.264835,13.1549629 11.1651094,13.1549629 C10.0651293,13.1549629 9.17363878,12.2634724 9.17363878,11.1637468 C9.17363878,10.0640213 10.0651293,9.17253074 11.1651094,9.17253074 C12.264835,9.17253074 13.1563255,10.0640213 13.1563255,11.1637468" id="Fill-3"></path>
                        <path d="M20.3893887,5.11113214 L19.2804988,6.22002211 C21.1166841,9.2297572 21.1255939,13.0510491 19.3021369,16.0699485 L20.4128088,17.1806205 C22.7960567,13.52276 22.7889289,8.75982817 20.3893887,5.11113214 L20.3893887,5.11113214 Z M5.14647932,1.91429096 L6.25715125,3.02496289 C9.26510438,1.20863371 13.0721405,1.21041567 16.0800937,3.03030878 L17.1889836,1.92141881 C13.5438515,-0.460047132 8.79517535,-0.463611058 5.14647932,1.91429096 L5.14647932,1.91429096 Z M3.05318222,6.21085773 L1.94429225,5.10222233 C-0.464157699,8.75626424 -0.469758154,13.5281059 1.92265413,17.1877483 L3.0315441,16.0788583 C1.20274118,13.0548675 1.20986903,9.22415675 3.05318222,6.21085773 L3.05318222,6.21085773 Z M16.1159875,19.2739176 C13.0919967,21.1243586 9.24703019,21.1243586 6.22125743,19.2792635 L5.11236746,20.3881534 C8.77531919,22.7983853 13.5616712,22.7966034 17.2248774,20.3828075 L16.1159875,19.2739176 Z" id="Fill-5"></path>
                    </g>
                </g>
            </g>
        </g>
    </g>
</svg>